<svg xmlns="http://www.w3.org/2000/svg" width="25" height="24" fill="none" viewBox="0 0 25 24"><path fill="#1C2120" d="M12.773 12.682A6.28 6.28 0 0 1 6.5 6.41 6.28 6.28 0 0 1 12.773.137a6.28 6.28 0 0 1 6.273 6.272 6.28 6.28 0 0 1-6.273 6.273m0-10.909A4.646 4.646 0 0 0 8.136 6.41a4.646 4.646 0 0 0 4.637 4.637 4.646 4.646 0 0 0 4.636-4.637 4.646 4.646 0 0 0-4.636-4.636M21.697 23.591a.824.824 0 0 1-.819-.818c0-3.764-3.84-6.818-8.552-6.818-4.713 0-8.553 3.054-8.553 6.818 0 .447-.37.818-.818.818a.824.824 0 0 1-.818-.818c0-4.658 4.57-8.455 10.189-8.455s10.189 3.797 10.189 8.455c0 .447-.371.818-.818.818"/></svg>