<svg xmlns="http://www.w3.org/2000/svg" id="prefix___00_Header_bakingo_logo" width="120" height="53.947" data-name="00_Header_bakingo_logo" viewBox="0 0 120 53.947"><defs><style>.prefix__cls-1,.prefix__cls-2{fill:red}.prefix__cls-2{fill-rule:evenodd}</style></defs><path id="prefix__Path_1" d="M140.546 43.4q.6 0 1.36-1.175a18.3 18.3 0 0 0 1.485-2.942q.728-1.768 1.4-3.838a32 32 0 0 0 1.006-3.848 15.3 15.3 0 0 0 .323-2.948q-.015-1.17-.534-1.184-.6 0-1.313 1.192a23.6 23.6 0 0 0-1.444 2.935q-.733 1.743-1.4 3.813a39 39 0 0 0-1.047 3.855 14 14 0 0 0-.364 2.955q.014 1.168.534 1.183m5.462-22.092a5.23 5.23 0 0 1 3.635 1.239 6.96 6.96 0 0 1 1.982 3.249 14.9 14.9 0 0 1 .551 4.6 27.2 27.2 0 0 1-.661 5.314 30.4 30.4 0 0 1-1.707 5.314 23.3 23.3 0 0 1-2.56 4.6 13.9 13.9 0 0 1-3.221 3.248 6.3 6.3 0 0 1-3.69 1.24 5.7 5.7 0 0 1-3.827-1.24 7.03 7.03 0 0 1-2.12-3.248 13.3 13.3 0 0 1-.579-4.6 27.3 27.3 0 0 1 .715-5.314 29.3 29.3 0 0 1 1.789-5.314 24.6 24.6 0 0 1 2.643-4.6 13.8 13.8 0 0 1 3.3-3.249 6.57 6.57 0 0 1 3.744-1.239z" class="prefix__cls-1" data-name="Path 1" transform="translate(-32.18 -5.584)"/><path id="prefix__Path_2" d="M117.088 43.4q.6 0 1.36-1.175a18.3 18.3 0 0 0 1.486-2.942q.728-1.768 1.394-3.838a32 32 0 0 0 1.006-3.848 15.3 15.3 0 0 0 .322-2.948q-.015-1.17-.534-1.184-.6 0-1.313 1.192a23.6 23.6 0 0 0-1.443 2.935q-.734 1.743-1.4 3.813a39 39 0 0 0-1.047 3.855 14 14 0 0 0-.364 2.955q.013 1.168.533 1.183m-4.906 12.545a1.58 1.58 0 0 0 1.349-.3 4.4 4.4 0 0 0 1.156-1.377 16 16 0 0 0 1.019-2.174q.5-1.267.992-2.643a3.75 3.75 0 0 0-2.285-.331 3.8 3.8 0 0 0-1.763.882 4.5 4.5 0 0 0-1.156 1.625 6.2 6.2 0 0 0-.5 1.872 3.44 3.44 0 0 0 .193 1.6 1.33 1.33 0 0 0 .995.845zm17.951-16.575a34 34 0 0 1-1.707 4.819 24 24 0 0 1-1.926 3.523 16.6 16.6 0 0 1-1.955 2.423 14 14 0 0 1-1.734 1.514 30 30 0 0 1-1.982 3.909 11 11 0 0 1-2.313 2.753 6.5 6.5 0 0 1-2.781 1.377 6.25 6.25 0 0 1-3.331-.276 4.34 4.34 0 0 1-2.836-2.285 6.05 6.05 0 0 1-.5-3.414 8.15 8.15 0 0 1 1.294-3.387 5.8 5.8 0 0 1 2.642-2.258 6.34 6.34 0 0 1-1.982-3.718 17.5 17.5 0 0 1-.166-5.424 31 31 0 0 1 1.349-6.112 27.4 27.4 0 0 1 2.56-5.7 16.6 16.6 0 0 1 3.469-4.185 6.23 6.23 0 0 1 4.075-1.625 3.3 3.3 0 0 1 2.23.688 3.4 3.4 0 0 1 1.074 1.845 7.7 7.7 0 0 1 2.231-1.294 7.6 7.6 0 0 1 2.231-.523 2.1 2.1 0 0 1 1.487.358q.5.412 0 1.349a22.5 22.5 0 0 0-1.6 3.937q-.827 2.561-1.625 5.342t-1.459 5.286-.992 3.828q-.329 1.266-.66 2.422t-.716 2.313a14.3 14.3 0 0 0 2.478-2.946 19.5 19.5 0 0 0 2.148-4.819q.5-1.6.964-1.487t.033 1.766z" class="prefix__cls-1" data-name="Path 2" transform="translate(-26.217 -5.856)"/><path id="prefix__Path_3" d="M105.163 39.093q.385-1.6.881-1.487t.11 1.762q-.165.827-.606 2.616a21.3 21.3 0 0 1-1.239 3.58 12 12 0 0 1-2.038 3.166 3.95 3.95 0 0 1-3.056 1.377 5.1 5.1 0 0 1-2.478-.633 4.04 4.04 0 0 1-1.762-2.065 5.1 5.1 0 0 1-.468-2.175 21 21 0 0 1 .166-2.891 30 30 0 0 1 .633-3.414q.441-1.817.991-3.744.386-1.377.744-2.7t.578-2.341a8 8 0 0 0 .22-1.625q0-.606-.33-.605-.55 0-1.267 1.377a24.5 24.5 0 0 0-1.377 3.3q-.55 2.038-1.24 4.185t-1.184 4.13a21 21 0 0 0-.605 3.718 5.7 5.7 0 0 0 .5 2.946 1.45 1.45 0 0 1-.138 1.817 2.78 2.78 0 0 1-1.872.715 4.8 4.8 0 0 1-2.456-.602 4.3 4.3 0 0 1-1.928-2.092 7.9 7.9 0 0 1-.605-3.689 22.7 22.7 0 0 1 .688-4.378q.579-2.285 1.4-4.653t1.514-4.543a33 33 0 0 0 1.019-3.992 5.84 5.84 0 0 0-.11-3.029 1.087 1.087 0 0 1 .358-1.4 2.16 2.16 0 0 1 1.762-.22 4.66 4.66 0 0 1 2.175 1.349 6.3 6.3 0 0 1 1.542 3.3 12 12 0 0 1 2.533-3.469 4.63 4.63 0 0 1 3.194-1.377 3.24 3.24 0 0 1 3.414 2.4q.771 2.4-.551 7.352-.276 1.046-.715 2.616t-.854 3.194q-.412 1.625-.771 3.056t-.523 2.2a3.56 3.56 0 0 0-.027 1.927c.166.4.395.606.688.606a1.22 1.22 0 0 0 .936-.551 7.5 7.5 0 0 0 .854-1.4 17 17 0 0 0 .744-1.817q.333-.964.554-1.789" class="prefix__cls-1" data-name="Path 3" transform="translate(-20.521 -5.584)"/><path id="prefix__Path_4" d="M77.11 50.663a5.56 5.56 0 0 1-2.561-.633 3.5 3.5 0 0 1-1.735-2.065 9 9 0 0 1-.413-2.781 23 23 0 0 1 .248-3.607q.276-1.928.744-4.02t1.018-4.02 1.1-3.634 1.046-2.864a5 5 0 0 1 1.982-2.533 5.3 5.3 0 0 1 2.561-.881 2.68 2.68 0 0 1 1.982.605 1.79 1.79 0 0 1 .358 1.982q-.55 1.761-1.184 3.854t-1.24 4.295q-.6 2.2-1.129 4.351t-.8 3.965A3.13 3.13 0 0 0 79.2 44.6c.22.4.478.606.772.606a1.27 1.27 0 0 0 .908-.551 6 6 0 0 0 .853-1.4q.386-.853.716-1.817T83 39.649a4 4 0 0 1 .468-1.184q.248-.358.441-.3t.248.5a3.6 3.6 0 0 1-.165 1.266q-.166.827-.606 2.616a23 23 0 0 1-1.211 3.58 11.6 11.6 0 0 1-2.01 3.166 3.95 3.95 0 0 1-3.055 1.378" class="prefix__cls-1" data-name="Path 4" transform="translate(-17.412 -6.158)"/><path id="prefix__Path_5" d="M61.58 33.234a7.7 7.7 0 0 1 .688 2.615q.138 1.459.275 2.754a11 11 0 0 0 .413 2.147 1.006 1.006 0 0 0 1.1.8 1.43 1.43 0 0 0 .826-.633 9 9 0 0 0 .854-1.4 16 16 0 0 0 .744-1.762q.33-.936.551-1.762A4 4 0 0 1 67.5 34.8q.248-.358.44-.3t.248.5a3.6 3.6 0 0 1-.165 1.266q-.165.827-.605 2.616a23 23 0 0 1-1.211 3.58 11.5 11.5 0 0 1-2.01 3.166A3.95 3.95 0 0 1 61.14 47a3.8 3.8 0 0 1-2.313-.881 6.43 6.43 0 0 1-1.927-2.973 8.4 8.4 0 0 1-.523-2.7q-.027-1.322.055-2.616t.083-2.478a6.5 6.5 0 0 0-.441-2.34q-.55 1.926-.991 3.689t-.688 3.249a14 14 0 0 0-.22 2.642 4.8 4.8 0 0 0 .358 1.873 1.48 1.48 0 0 1-.11 1.817 2.68 2.68 0 0 1-1.846.718 4.93 4.93 0 0 1-2.478-.606 4.27 4.27 0 0 1-1.955-2.094 8.47 8.47 0 0 1-.358-4.433 47 47 0 0 1 1.266-6.222q.909-3.387 2.121-7.022t2.227-6.91q1.02-3.276 1.569-5.837a7.36 7.36 0 0 0 .11-3.772 1.087 1.087 0 0 1 .358-1.4A2.16 2.16 0 0 1 57.2 8.48a4.66 4.66 0 0 1 2.175 1.349 6.3 6.3 0 0 1 1.542 3.3 7.8 7.8 0 0 1-.083 2.809q-.3 1.762-.881 3.993t-1.377 4.791q-.8 2.561-1.569 5.149a6.15 6.15 0 0 0 2.121-2.506q.743-1.569 1.377-3.248a27 27 0 0 1 1.461-3.217 5.53 5.53 0 0 1 2.478-2.368 4.55 4.55 0 0 1 2.616-.523 5.4 5.4 0 0 1 2.257.688 2.1 2.1 0 0 1 1.074 1.294q.165.744-.881 1.294a4.1 4.1 0 0 0-1.679 1.487 15 15 0 0 0-.964 1.955 21 21 0 0 1-1.1 2.258 8.7 8.7 0 0 1-2.038 2.341 9.3 9.3 0 0 1-1.845 1.211 9.2 9.2 0 0 1-1.789.661 7.5 7.5 0 0 1 1.486 2.038" class="prefix__cls-1" data-name="Path 5" transform="translate(-11.464 -2.023)"/><path id="prefix__Path_6" d="M30.8 43.4q.6 0 1.36-1.175a18.3 18.3 0 0 0 1.486-2.942q.727-1.768 1.394-3.838a32 32 0 0 0 1.006-3.845 15.3 15.3 0 0 0 .323-2.948q-.015-1.17-.534-1.184-.6 0-1.314 1.192a24 24 0 0 0-1.444 2.935q-.733 1.743-1.4 3.813a39 39 0 0 0-1.047 3.855 14 14 0 0 0-.365 2.955q.016 1.168.535 1.183m14.52-19.672a25 25 0 0 0-1.074 2.4q-.579 1.459-1.129 3.222t-1.1 3.634q-.55 1.872-1.018 3.607t-.826 3.194-.578 2.341a4.7 4.7 0 0 0-.137 1.872q.138.6.413.661a1.43 1.43 0 0 0 .881-.606 7.8 7.8 0 0 0 .854-1.377 12 12 0 0 0 .716-1.789q.3-.964.523-1.789.385-1.6.908-1.487t.138 1.762q-.22.827-.633 2.616a19.6 19.6 0 0 1-1.211 3.579 12 12 0 0 1-2.038 3.166 3.95 3.95 0 0 1-3.056 1.377 3.3 3.3 0 0 1-1.982-.688 3.45 3.45 0 0 1-1.271-2.071 4.86 4.86 0 0 1-1.845 2.038 4.5 4.5 0 0 1-2.341.715 4.22 4.22 0 0 1-3.937-2.12 11.04 11.04 0 0 1-1.322-5.342 25.8 25.8 0 0 1 .854-6.939 33.6 33.6 0 0 1 2.56-6.939 19.9 19.9 0 0 1 3.8-5.342 6.55 6.55 0 0 1 4.6-2.121 3.3 3.3 0 0 1 2.231.688 3.4 3.4 0 0 1 1.074 1.845 7.7 7.7 0 0 1 2.226-1.292 7.6 7.6 0 0 1 2.231-.523 2.1 2.1 0 0 1 1.487.358q.497.413.002 1.35" class="prefix__cls-1" data-name="Path 6" transform="translate(-5.833 -5.584)"/><path id="prefix__Path_7" d="M7.1 40.295q.6 0 1.361-1.175a18.3 18.3 0 0 0 1.486-2.942q.728-1.768 1.4-3.838a32 32 0 0 0 1.006-3.848 15.3 15.3 0 0 0 .323-2.948q-.016-1.17-.535-1.184-.6 0-1.313 1.192a24 24 0 0 0-1.444 2.935q-.733 1.743-1.4 3.813a39 39 0 0 0-1.047 3.855 14 14 0 0 0-.364 2.955q.013 1.168.532 1.183m8.327-21.377a5.8 5.8 0 0 1 2.506 3.635 16.5 16.5 0 0 1 .432 5.649 27.5 27.5 0 0 1-1.349 6.443 26.2 26.2 0 0 1-2.891 6.085 17.1 17.1 0 0 1-4.185 4.512A8.6 8.6 0 0 1 4.741 47 4.3 4.3 0 0 1 .5 44.359 7.1 7.1 0 0 1 0 41.22a24 24 0 0 1 .551-4.268q.5-2.34 1.267-4.984t1.652-5.314l1.735-5.259q.853-2.587 1.432-4.763a35 35 0 0 0 .826-3.854 5.7 5.7 0 0 0-.083-2.616 1.13 1.13 0 0 1 .358-1.432A2.1 2.1 0 0 1 9.5 8.484a4.66 4.66 0 0 1 2.175 1.349 6.63 6.63 0 0 1 1.6 3.3 6.9 6.9 0 0 1 0 2.148q-.165 1.322-.551 3.029a3.37 3.37 0 0 1 2.7.608z" class="prefix__cls-1" data-name="Path 7" transform="translate(0 -2.024)"/><path id="prefix__Path_8" d="M80.458 12.339c.629-2.793 1.742-4.183 4.342-5.117-4.355-1.764-5.775 3.432-4.338 5.117m3.753-6.606a5.932 5.932 0 1 1-5.932 5.932 5.933 5.933 0 0 1 5.928-5.932z" class="prefix__cls-2" data-name="Path 8" transform="translate(-18.827 -1.383)"/><path id="prefix__Path_9" d="M90.278 5.338c3.8-2.708 7.12-4.132 10.566-3.811-3.251-4.039-8.68.946-10.938 3.584q.189.107.371.227" class="prefix__cls-2" data-name="Path 9" transform="translate(-21.623 -.005)"/></svg>