<svg xmlns="http://www.w3.org/2000/svg" width="38" height="38" fill="none" viewBox="0 0 38 38"><path fill="#251D34" fill-opacity=".72" d="M15.262 12.033v-.615c0-.989-.534-1.576-1.522-1.67-.454-.04-.735-.347-.708-.788.014-.414.32-.682.761-.695 1.523-.04 2.898 1.283 2.951 2.82.014.32 0 .64 0 1.054.214-.106.36-.16.494-.24 1.509-1.015 3.018-2.03 4.54-3.046.16-.107.387-.214.574-.2 3.338.2 6.49.975 9.226 3.005 2.618 1.938 4.166 4.57 4.887 7.71.294 1.255.388 2.511.388 3.807-.014 4.128-.014 8.243-.014 12.372 0 .828-.213 1.042-1.028 1.042H2.083c-.774 0-1.001-.214-1.001-.989V23.31c0-.388.147-.642.467-.855 3.512-2.352 7.024-4.717 10.522-7.081.107-.067.213-.187.227-.308.347-1.576 1.295-2.551 2.83-2.979.067-.013.08-.027.134-.053Zm-2.804 4.916c-2.684 1.804-5.354 3.607-8.105 5.451h31.084c-.147-.922-.24-1.83-.427-2.699-.721-3.206-2.403-5.758-5.247-7.481-2.177-1.31-4.567-1.857-7.064-2.044-.12-.014-.254.066-.36.133l-3.645 2.445c-.067.04-.12.107-.187.16 1.188 1.216 1.602 2.619.961 4.209-.56 1.403-1.656 2.204-3.151 2.311-1.856.107-3.098-.801-3.859-2.485Zm-9.84 9.913h32.726v-2.925H2.618v2.925Zm.013 8.204h32.713v-3.648c-.4.24-.748.428-1.055.655-1.002.721-2.11.922-3.311.708-.708-.133-1.296-.494-1.856-.895-.668-.481-1.402-.655-2.19-.428-.44.134-.855.388-1.242.642-.988.668-2.043.881-3.218.694-.76-.12-1.375-.534-1.99-.948-.6-.414-1.268-.601-1.975-.401-.481.134-.948.374-1.349.641-1.028.695-2.123.922-3.325.695-.707-.133-1.308-.508-1.882-.922-.615-.44-1.322-.614-2.043-.414-.454.134-.895.36-1.282.628-.788.521-1.629.815-2.577.802-.908-.014-1.682-.334-2.417-.842-.293-.2-.614-.374-.988-.601-.013 1.269-.013 2.445-.013 3.634Zm0-5.13c.761.12 1.389.52 2.003.948.627.44 1.322.628 2.043.414.534-.16 1.028-.467 1.508-.761.922-.575 1.896-.749 2.951-.602.788.107 1.442.521 2.07.962.614.428 1.295.628 2.003.401.547-.174 1.055-.467 1.549-.775.908-.574 1.869-.735 2.924-.601.787.107 1.442.508 2.07.949.627.454 1.348.64 2.082.414.534-.16 1.028-.468 1.509-.775.908-.575 1.87-.722 2.924-.588.828.107 1.482.575 2.163 1.015.935.602 1.896.602 2.83.014.668-.428 1.31-.895 2.11-1.016v-1.523H2.645c-.013.521-.013 1.016-.013 1.523ZM13.78 15.692a2.249 2.249 0 0 0 2.23 2.258c1.201 0 2.23-1.015 2.23-2.23 0-1.203-1.015-2.232-2.217-2.245-1.202 0-2.23 1.002-2.243 2.217ZM5.582 2.68c0 .147.013.294 0 .441a.733.733 0 0 1-.761.655.722.722 0 0 1-.721-.695 8.297 8.297 0 0 1 0-.815c.013-.427.32-.721.734-.721.4 0 .721.294.748.721.013.147 0 .28 0 .415ZM2.98 5.272c-.148 0-.294.014-.441 0-.4-.026-.668-.347-.668-.748 0-.4.28-.708.681-.735a8.28 8.28 0 0 1 .815 0c.427.014.72.321.734.735 0 .414-.307.735-.748.748-.12.014-.254.014-.374 0 0 .014 0 .014 0 0ZM6.689 5.273c-.147 0-.294.013-.441 0-.387-.04-.654-.361-.654-.762.013-.374.28-.681.667-.708.28-.013.575-.013.855 0a.721.721 0 0 1 .708.748c0 .401-.308.708-.735.735-.133 0-.267 0-.4-.013ZM34.621 4.898c0 .134.013.268 0 .415-.027.414-.347.721-.748.708-.414 0-.72-.294-.734-.722a8.328 8.328 0 0 1 0-.815c.027-.4.32-.694.72-.694.388 0 .722.267.762.668.013.147 0 .293 0 .44ZM5.58 6.408c0 .133.014.267 0 .414-.04.414-.36.708-.76.695a.704.704 0 0 1-.708-.708 8.29 8.29 0 0 1 0-.815.704.704 0 0 1 .707-.708.731.731 0 0 1 .775.681c0 .147-.014.294-.014.44ZM32.032 6.034c.133 0 .267-.014.414 0 .4.026.694.334.694.735a.73.73 0 0 1-.708.748 8.281 8.281 0 0 1-.814 0c-.427-.014-.708-.334-.708-.748 0-.415.294-.709.721-.735.134-.014.267 0 .4 0ZM35.732 7.517c-.147 0-.294.013-.44 0a.724.724 0 0 1-.655-.762c.014-.387.28-.694.654-.721.28-.013.575-.013.855 0a.73.73 0 0 1 .721.735.73.73 0 0 1-.721.735c-.147.013-.28.013-.414.013ZM33.139 8.626c0-.134-.014-.267 0-.414.026-.401.32-.695.72-.695a.733.733 0 0 1 .762.655c.026.294.026.588 0 .895-.027.414-.374.695-.775.681-.387-.013-.68-.307-.707-.721v-.401ZM15.277 2.306c0-.427.307-.748.735-.748.414 0 .747.334.747.748 0 .401-.32.722-.72.735a.723.723 0 0 1-.762-.735ZM27.172 4.538c-.427 0-.735-.32-.735-.762 0-.427.334-.734.762-.734.4.013.72.334.72.734a.734.734 0 0 1-.747.762ZM6.329 13.476a.712.712 0 0 1-.735-.749c0-.414.307-.721.721-.734a.73.73 0 0 1 .761.734.747.747 0 0 1-.747.749Z"/></svg>