<svg xmlns="http://www.w3.org/2000/svg" width="18" height="18" fill="none" viewBox="0 0 18 18"><g id="facebook-round-color-icon 1" clip-path="url(#clip0_6137_14124)"><path id="Vector" fill="#1877F2" d="M18 9a9 9 0 1 0-10.406 8.89v-6.288H5.308V9h2.286V7.017c0-2.255 1.343-3.501 3.399-3.501.985 0 2.015.177 2.015.177v2.215h-1.135c-1.118 0-1.467.694-1.467 1.405v1.689h2.496l-.399 2.601h-2.098v6.288C14.71 17.216 18 13.492 18 9Z"/><path id="Vector_2" fill="#fff" d="M12.504 11.601 12.902 9h-2.497V7.312c0-.71.349-1.406 1.467-1.406h1.135V3.693s-1.03-.177-2.015-.177c-2.055 0-3.4 1.245-3.4 3.501V9H5.31V11.6h2.285v6.29c.932.145 1.88.145 2.812 0V11.6h2.098Z"/></g><defs><clipPath id="clip0_6137_14124"><path fill="#fff" d="M0 0h18v18H0z"/></clipPath></defs></svg>