<svg xmlns="http://www.w3.org/2000/svg" width="64" height="32" fill="none" viewBox="0 0 64 32"><path fill="#251D34" fill-opacity=".72" fill-rule="evenodd" d="m54.166 9.368-40.799.016H10.93v1.267l2.174.008.017.009 50.166-.008.56-1.292c-.916 0-9.086.032-9.248-.017-.17.017-.237.05-.433.017Zm-1.206 5.604a.668.668 0 0 0 .255-.05c.637-.181 1.444-.403 2.098-.403.297-.008.594.099.815.288.518.502.238 1.407.102 2.123l-1.274 6.46c-.085.428-.187.855-.255 1.283-.102.593-.187.799-.187 1.506 0 1.276.782 2.346 2.081 2.346 1.197 0 2.132-.428 3.1-.996.45-.28.892-.576 1.308-.897.144-.115.866-.691.9-.749l.026-1.061c-.12.032-.553.469-.722.592-.247.19-.476.395-.756.592-.442.305-2.081 1.391-2.599.47-.272-.486-.178-1.144-.06-1.663.17-.716.408-1.925.552-2.625.238-1.168.485-2.304.73-3.472l.366-1.72c.17-.7.4-1.901.552-2.625.06-.296.136-.601.187-.873.05-.271.348-1.563.348-1.769-.076.025-.153.05-.238.074L53.3 13.96c-.296.083-.27.033-.28.387-.008.197-.059.444-.059.626ZM36.074 23.176c0 1.11.221 2.254.968 2.946l.068.057c1.35 1.21 3.363.066 4.502-.83a15.929 15.929 0 0 0 2.148-2.1c.136-.164.255-.304.382-.468.45-.585.646-.897 1.062-1.498.255-.37.365-.609.56-.93l.094-.123-.212 1.086c-.085.428-.62 2.97-.62 3.3 0 2.065 1.443 2.42 3.176 1.753l.552-.247c.17-.1.348-.173.518-.28a9.052 9.052 0 0 0 1.359-1.02c.153-.149.874-.856.95-1.03l.17-1.003c-.831.757-1.367 1.473-2.411 2.106-.45.272-1.478.832-1.767.05-.28-.74.391-2.872.56-3.843.145-.815.485-2.172.663-3.028l.331-1.514c.06-.239.11-.494.162-.741.042-.206.484-2.205.492-2.296-.186 0-.492-.05-.679-.057-.858-.042-1.47-.091-2.386-.091-2.438 0-4.247.47-5.97 1.728l-1.41 1.16c-.111.107-.204.19-.306.305-.196.23-.416.444-.603.683a10.582 10.582 0 0 0-1.987 3.736 7.73 7.73 0 0 0-.366 2.189Zm3.66 1.62a.945.945 0 0 1-.798-.46c-.62-.996-.034-3.242.272-4.312.246-.815.56-1.596.951-2.354.289-.55.892-1.571 1.308-1.974.136-.14.28-.272.442-.379 1.095-.724 2.505-.625 3.745-.387.263.05 1.104.247 1.3.338-.018.172-.425 2.057-.45 2.123-.052.123-.12.23-.17.345-.34.815-1.478 2.584-2.005 3.259l-1.172 1.424c-.323.378-.662.732-1.027 1.078-.434.411-.196.304-.858.732-.323.214-.985.568-1.537.568Z" clip-rule="evenodd"/><path fill="#251D34" fill-opacity=".72" fill-rule="evenodd" d="m13.121 10.676-.017-.008-2.174-.008V9.393h2.438c0-.149.5-2.724.526-2.864.382-1.695 1.546-3.242 3.414-3.48a3.909 3.909 0 0 1 1.572.147c.552.173 1.188.527 1.214.535.085-.058 1.282-1.193 1.452-1.358.578-.56.595-.428-.008-.518-1.52-.214-3.49-.041-4.918.518-.662.247-1.299.576-1.885.963l-.595.444c-.076.066-.135.1-.203.165a8.78 8.78 0 0 0-1.63 1.9c-.094.149-.188.289-.264.437-.493.922-.518 1.062-.832 1.959-.06.164-.12.37-.162.543-.025.115-.042.18-.068.296-.034.099-.05.197-.06.304h-3.38v1.292h3.134l-.254 1.432c-.085.461-.17.988-.272 1.457-.382 1.851-.68 3.933-1.062 5.768-.195.947-.348 1.934-.535 2.905-.637 3.292-.883 7.209-5.452 6.484-.501-.082-.943-.222-1.427-.337l-1.528 1.77c1.825.04 2.785.41 4.713-.256a7.25 7.25 0 0 0 3.244-2.288c.272-.337.408-.526.663-.888.5-.724 1.053-1.918 1.367-2.732 1.257-3.284 1.767-7.291 2.48-10.739.068-.305.467-2.493.51-2.576ZM15.388 17.136c0 .378.068.748.196 1.102.093.305.246.576.458.815.272.296.637.74.918 1.004.186.181.696.782.917 1.004.764.798 1.452 1.44 1.452 2.625 0 .946-.917 1.654-1.894 1.654h-.407c-1.028 0-2.497-.7-3.134-1.111l-1.648 1.687c.11.008.272.09.4.123.747.24 1.842.543 2.615.535.212 0 .306.033.527.033 1.163 0 2.318-.28 3.337-.823.136-.066.264-.148.382-.23 1.741-1.193 2.387-3.234 1.07-4.921-.322-.412-.883-1.02-1.231-1.448l-1.215-1.44c-.467-.51-.832-1.095-.832-1.844 0-1.135 1.18-1.769 2.234-1.769.815 0 1.605.19 2.021.831.357.543.153.938.153 1.3h.807l.62-2.616-.51-.173a5.814 5.814 0 0 0-.543-.132c-2.149-.494-4.875.222-6.15 2.082a3.132 3.132 0 0 0-.543 1.712ZM26.614 17.103c0 .56.06.724.221 1.201.06.148.119.296.204.436.144.28.934 1.07 1.197 1.366.06.066.068.1.136.165.06.057.11.115.162.173l1.061 1.168c.06.058.11.099.17.165.764.88 1.206 2.197.22 3.077-.89.799-2.462.461-3.43.09a9.272 9.272 0 0 1-1.121-.534c-.102-.058-.247-.173-.374-.181l-1.58 1.662c.646.33 2.378.692 3.134.692 1.113 0 1.605.008 2.684-.346 2.098-.675 3.847-2.65 2.99-4.74a4.037 4.037 0 0 0-.476-.856c-.272-.345-.909-1.061-1.223-1.432-.408-.493-.815-.946-1.215-1.44-.271-.337-.348-.362-.552-.757-.297-.584-.424-1.275-.093-1.876.11-.197.263-.362.45-.494 1.121-.897 3.822-.675 3.822 1.087a1.75 1.75 0 0 1-.094.51h.841l.586-2.617c-.246-.058-.552-.181-.985-.28-1.104-.255-2.59-.18-3.61.206a9.346 9.346 0 0 0-.772.329 4.77 4.77 0 0 0-1.291.93c-.595.568-1.053 1.399-1.062 2.296Z" clip-rule="evenodd"/><path fill="#251D34" fill-opacity=".72" fill-rule="evenodd" d="M2.256 30.508H1.39c-.442 0-.773-.058-1.206-.058v.181h58.82c.026-.098.34-.757.425-.913a.9.9 0 0 0 .136-.32H7.538c-1.622 0-.611-.026-2.2.542-.874.321-2.08.568-3.082.568ZM56.578 7.91c.042.157.101.256.127.387-.178.05-.535.593-1.902.799-.136.024-.28.04-.425.04-.246 0-.212 0-.212.231.195.041.271 0 .433 0 .637-.107.934-.107 1.58-.436.212-.107.407-.239.594-.387.195-.164.4-.082.858-.164 1.112-.19 1.868-.831 2.403-1.605 1.087-1.588 1.393-3.892 1.393-6.534h-.06c-.042.477-1.027 1.893-1.435 2.337-.068.074-.093.124-.17.198l-1.494 1.522c-.28.296-.671.708-.91 1.012-.347.436-.678.922-.797 1.481-.094.37-.085.758.017 1.12Z" clip-rule="evenodd"/><path fill="#251D34" fill-opacity=".72" fill-rule="evenodd" d="M56.357 7.047a1.206 1.206 0 0 0-1.758-.428.8.8 0 0 0-.179.156c-.212.223-.322.445-.322.864 0 .346.153.576.365.79a1.198 1.198 0 0 0 1.664-.008l.043-.041a1.3 1.3 0 0 0 .306-.642 1.288 1.288 0 0 0-.12-.691Z" clip-rule="evenodd"/></svg>