<svg xmlns="http://www.w3.org/2000/svg" width="18" height="18" fill="none" viewBox="0 0 18 18"><g id="Frame 624902"><path id="Vector" fill="url(#paint0_linear_6137_14129)" fill-rule="evenodd" d="M9 0a9 9 0 1 1 0 18A9 9 0 0 1 9 0ZM6.805 3.853h4.39c1.648 0 2.996 1.332 2.996 2.958v4.378c0 1.627-1.348 2.957-2.996 2.957h-4.39c-1.648 0-2.996-1.33-2.996-2.957V6.81c0-1.626 1.348-2.958 2.996-2.958Zm2.167 2.368a2.903 2.903 0 1 1-.002 5.805 2.903 2.903 0 0 1 .002-5.805Zm0 .98a1.922 1.922 0 1 1-.001 3.845A1.922 1.922 0 0 1 8.972 7.2ZM11.78 5.82a.471.471 0 1 1 0 .942.471.471 0 0 1 0-.942ZM7.164 4.694h3.672a2.507 2.507 0 0 1 2.507 2.494v3.69a2.507 2.507 0 0 1-2.507 2.494H7.164a2.507 2.507 0 0 1-2.507-2.493V7.188a2.508 2.508 0 0 1 2.507-2.494Z" clip-rule="evenodd"/></g><defs><linearGradient id="paint0_linear_6137_14129" x1="13.51" x2="4.49" y1="16.643" y2="1.357" gradientUnits="userSpaceOnUse"><stop stop-color="#F58529"/><stop offset=".169" stop-color="#FEDA77"/><stop offset=".478" stop-color="#DD2A7B"/><stop offset=".78" stop-color="#8134AF"/><stop offset="1" stop-color="#515BD4"/></linearGradient></defs></svg>