<svg xmlns="http://www.w3.org/2000/svg" width="18" height="18" fill="none" viewBox="0 0 18 18"><g id="linkedin-round-color-icon 1" clip-path="url(#clip0_6137_14117)"><path id="Vector" fill="#0077B5" fill-rule="evenodd" d="M9 0a9 9 0 1 1 0 18A9 9 0 0 1 9 0Zm-.984 7.5h1.56v.8H9.6c.217-.39.749-.8 1.541-.8 1.648 0 1.953 1.025 1.953 2.36v2.716h-1.628v-2.408c0-.575-.012-1.314-.846-1.314-.847 0-.977.625-.977 1.272v2.45H8.016V7.5ZM6.888 6.09a.846.846 0 1 1-1.693-.001.846.846 0 0 1 1.693 0ZM5.196 7.5h1.692v5.076H5.196V7.5Z" clip-rule="evenodd"/></g><defs><clipPath id="clip0_6137_14117"><path fill="#fff" d="M0 0h18v18H0z"/></clipPath></defs></svg>