<svg xmlns="http://www.w3.org/2000/svg" xml:space="preserve" id="Layer_1" x="0" y="0" style="enable-background:new 0 0 50 50" version="1.1" viewBox="0 0 50 50"><style type="text/css">.st0{fill:#bd081c}</style><g><path d="M15.8 48.2C5.3 44.3-2.8 32 .9 18.5 4.6 4.6 19.1-3.2 32.6 1.2c13.6 4.4 20.8 19.1 15.8 32.4-5 13.6-19.4 18.9-30.6 15.3.9-2 2-3.9 2.7-6 .7-2.1 1.2-4.2 1.7-6.3.4.4.8.9 1.3 1.2 1.8 1.3 3.8 1.6 6 1.3 3.8-.5 6.6-2.5 8.6-5.6 2.5-3.9 3.4-8.3 2.5-12.8-1-4.9-4-8.3-8.6-10.1-5.9-2.3-11.6-1.8-16.9 1.7-3.5 2.3-5.4 5.8-6 10-.5 3.5.2 6.7 2.3 9.6.7 1 1.5 1.7 2.6 2.3.5.3.8.2.9-.4.2-.9.4-1.7.6-2.6 0-.3 0-.6-.2-.8-3.2-4.4-2-10.8 2.2-14.1 3.7-3 9.7-3.3 13.5-.6 2.4 1.7 3.7 4 4.1 6.9.3 3.2-.1 6.3-1.8 9.1-1 1.8-2.5 3.1-4.6 3.6-.9.2-1.7.2-2.6 0-1.9-.6-2.9-2.3-2.4-4.2.5-2.1 1.2-4.2 1.7-6.4.2-.9.3-2 .2-2.9-.3-2.3-2.5-3.3-4.6-2.3-1.7.8-2.5 2.3-2.8 4.1-.3 1.7-.2 3.4.4 5 .1.3.1.6.1.9-.9 3.9-1.9 7.8-2.8 11.8-.5 2.2-.4 4.4-.2 6.7v.4c.1-.3.1-.3.1-.2z" class="st0"/></g></svg>