<svg xmlns="http://www.w3.org/2000/svg" width="30" height="30" viewBox="0 0 30 30"><defs><style>.cls-5{fill:#fea832}.cls-6{fill:#fe9923}</style></defs><g id="recomended" transform="translate(4 6.409)"><path id="Rectangle_328" fill="none" d="M0 0h30v30H0z" transform="translate(-4 -6.409)"/><g id="quality" transform="translate(-.25 -2.659)"><path id="Path_24427" fill="#fedb41" d="M180.843 105.516a1.474 1.474 0 01-1.477 1.477h-1.318a1.483 1.483 0 010 2.966h-1.318a1.483 1.483 0 010 2.966h-4.456c-1.846-.461-.765-.2-5.273-1.318V101.06a28.945 28.945 0 004.245-1.477c1.239-.62 2.1-2.808 2.294-4.43a.688.688 0 01.316-.488.671.671 0 01.4-.079.263.263 0 01.171.026A2.448 2.448 0 01176 97.263a15.221 15.221 0 01-1.028 3.8h4.39a1.483 1.483 0 010 2.966 1.477 1.477 0 011.481 1.487z" transform="translate(-159.661 -90.425)"/><path id="Path_24428" fill="#fcbf29" d="M338.592 105.516a1.474 1.474 0 01-1.477 1.477H335.8a1.483 1.483 0 010 2.966h-1.318a1.483 1.483 0 010 2.966H332V94.586a.263.263 0 01.171.026 2.448 2.448 0 011.582 2.65 15.218 15.218 0 01-1.028 3.8h4.39a1.483 1.483 0 010 2.966 1.477 1.477 0 011.477 1.488z" transform="translate(-317.41 -90.425)"/><path id="Path_24429" fill="#c8c6cd" d="M3.3 252.547H.659a.659.659 0 01-.659-.659v-9.229A.659.659 0 01.659 242H3.3a.659.659 0 01.659.659v9.229a.659.659 0 01-.659.659z" transform="translate(0 -231.365)"/><g id="Group_1822" transform="translate(6.68)"><path id="Path_24430" d="M318.318.659v1.406a.659.659 0 01-1.318 0V.659a.659.659 0 011.318 0z" class="cls-5" transform="translate(-309.749)"/><path id="Path_24431" d="M201.451 52.383l-.932-.932a.659.659 0 01.932-.932l.932.932a.659.659 0 11-.932.932z" class="cls-5" transform="translate(-198.202 -48.114)"/><path id="Path_24432" d="M153.978 168.318h-1.318a.659.659 0 010-1.318h1.318a.659.659 0 010 1.318z" class="cls-5" transform="translate(-152 -159.661)"/></g><g id="Group_1823" transform="translate(14.59)"><path id="Path_24433" d="M453.978 168.318h-1.318a.659.659 0 010-1.318h1.318a.659.659 0 010 1.318z" class="cls-6" transform="translate(-446.727 -159.661)"/><path id="Path_24434" d="M412.657 52.383a.659.659 0 010-.932l.932-.932a.659.659 0 01.932.932l-.932.932a.659.659 0 01-.932 0z" class="cls-6" transform="translate(-408.928 -48.114)"/><path id="Path_24435" d="M332 2.725V0a.653.653 0 01.659.659v1.406a.653.653 0 01-.659.66z" class="cls-6" transform="translate(-332)"/></g><path id="Path_24436" fill="#e5e5e5" d="M63.384 253.865h-2.725a.659.659 0 01-.659-.659V242h5.361v9.888a1.978 1.978 0 01-1.977 1.977z" transform="translate(-57.363 -231.365)"/></g></g></svg>