<svg xmlns="http://www.w3.org/2000/svg" width="30" height="30" viewBox="0 0 30 30"><path fill="none" d="M0 0h30v30H0z"/><g fill="#ffab00"><g stroke-miterlimit="10"><path d="M5.653 23.55a1.204 1.204 0 01-1.19-1.402L5.27 17.5a.093.093 0 00-.028-.083l-3.424-3.292a1.198 1.198 0 01.668-2.047L7.22 11.4a.105.105 0 00.081-.056L9.42 7.115c.206-.41.62-.665 1.082-.665.462 0 .876.255 1.082.665l2.116 4.228c.015.03.046.052.082.057l4.734.678a1.198 1.198 0 01.667 2.047l-3.424 3.291a.099.099 0 00-.03.085l.81 4.646c.077.457-.108.907-.485 1.177a1.212 1.212 0 01-1.265.091l-4.236-2.195a.11.11 0 00-.053-.013.107.107 0 00-.053.013l-4.234 2.194a1.225 1.225 0 01-.56.136z"/><path fill="#fff" d="M10.5 7a.66.66 0 00-.59.362l-2.116 4.227a.655.655 0 01-.495.355l-4.734.678a.657.657 0 00-.532.442.643.643 0 00.167.665l3.424 3.29c.156.15.227.365.19.575l-.808 4.648a.643.643 0 00.262.634.662.662 0 00.693.05l4.234-2.195a.673.673 0 01.612 0l4.234 2.195a.66.66 0 00.693-.05.643.643 0 00.262-.634l-.808-4.648a.643.643 0 01.19-.574l3.422-3.291a.642.642 0 00.167-.665.657.657 0 00-.531-.442l-4.734-.678a.654.654 0 01-.495-.354L11.09 7.362A.655.655 0 0010.501 7m0-1.1a1.75 1.75 0 011.574.97l2.011 4.018 4.507.645a1.747 1.747 0 01.97 2.989l-3.25 3.124.766 4.407a1.754 1.754 0 01-1.733 2.047c-.28 0-.56-.068-.809-.196L10.5 21.812l-4.034 2.09a1.768 1.768 0 01-1.839-.131 1.754 1.754 0 01-.706-1.717l.767-4.408-3.252-3.124a1.747 1.747 0 01.972-2.989l4.506-.645 2.013-4.02c.3-.597.903-.968 1.574-.968z"/></g><path d="M22.653 14.2a.4.4 0 01.694 0l1.246 2.382a.386.386 0 00.292.2l2.784.381a.381.381 0 01.312.248.35.35 0 01-.1.374l-2.012 1.851a.353.353 0 00-.112.323l.475 2.614a.356.356 0 01-.154.357.409.409 0 01-.408.028l-2.49-1.234a.408.408 0 00-.36 0l-2.491 1.234a.408.408 0 01-.408-.028.356.356 0 01-.154-.357l.475-2.614a.352.352 0 00-.112-.323l-2.013-1.851a.351.351 0 01-.1-.374.382.382 0 01.313-.248l2.785-.381a.386.386 0 00.291-.2z"/></g></svg>