<svg xmlns="http://www.w3.org/2000/svg" width="25" height="25" fill="none" viewBox="0 0 25 25"><path fill="#1C2120" d="M5.421 6.5c-.6 0-1.09-.49-1.09-1.09s.48-1.092 1.09-1.092h.01c.6 0 1.092.491 1.092 1.091S6.032 6.5 5.42 6.5M19.6 20.682c-.6 0-1.09-.491-1.09-1.091s.48-1.091 1.09-1.091h.012c.6 0 1.09.49 1.09 1.09s-.49 1.092-1.101 1.092"/><path fill="#1C2120" d="M5.377 10.045A4.646 4.646 0 0 1 .74 5.41 4.646 4.646 0 0 1 5.377.772a4.647 4.647 0 0 1 4.636 4.637 4.64 4.64 0 0 1-4.636 4.636m0-7.636c-1.659 0-3 1.342-3 3s1.341 3 3 3c1.658 0 3-1.342 3-3s-1.342-3-3-3M21.197 24.227h-3.273c-1.658 0-3-1.342-3-3v-3.273c0-1.658 1.342-3 3-3h3.273c1.658 0 3 1.342 3 3v3.273c0 1.658-1.342 3-3 3m-3.273-7.637c-.753 0-1.364.611-1.364 1.364v3.273c0 .753.611 1.363 1.364 1.363h3.273c.752 0 1.363-.61 1.363-1.363v-3.273c0-.753-.61-1.364-1.363-1.364zM12.501 20.955H9.577a2.96 2.96 0 0 1-2.803-1.942 2.98 2.98 0 0 1 .829-3.316l8.716-7.626c.524-.458.535-1.08.382-1.505-.164-.426-.578-.884-1.276-.884H12.5a.824.824 0 0 1-.818-.818c0-.447.37-.818.818-.818h2.924c1.265 0 2.367.764 2.803 1.942a2.98 2.98 0 0 1-.829 3.316L8.683 16.93c-.524.458-.535 1.08-.382 1.505.164.425.578.884 1.276.884h2.924c.447 0 .818.37.818.818s-.37.818-.818.818"/></svg>