<svg xmlns="http://www.w3.org/2000/svg" width="38" height="38" fill="none" viewBox="0 0 38 38"><path fill="#251D34" fill-opacity=".72" d="M.17 10.606c.125-.555.222-1.123.374-1.664 1.012-3.592 4.2-6.283 7.9-6.713 4.935-.568 9.287 2.552 10.396 7.42 1.137 5.062-2.44 10.346-7.568 11.192-1.87.305-3.659.11-5.391-.624a3.766 3.766 0 0 0-.222-.083v6.518H20.17c.582 0 .9.291.873.79a.727.727 0 0 1-.652.68c-.152.014-.29.014-.443.014H5.673v2.718c.776 0 1.552 0 2.328-.014.083 0 .18-.097.25-.18 1.261-1.331 3.285-1.331 4.546-.014.097.097.263.194.402.194 4.02.014 8.025.014 12.044.014.056 0 .111-.014.194-.014V12.964h-1.441c-.18 0-.374 0-.554-.028-.389-.07-.652-.36-.652-.735 0-.36.264-.708.652-.721a38.468 38.468 0 0 1 2.827 0c.444.013.652.346.652.86v5.075h.47c1.844 0 3.688.014 5.517 0 .471 0 .776.167 1.012.583 1.233 2.177 2.495 4.355 3.742 6.532.056.097.139.194.208.291v6.99c-.194.402-.513.54-.956.527-.555-.028-1.109 0-1.677 0 .166 2.039-1.234 3.328-2.69 3.509a3.016 3.016 0 0 1-2.19-.555c-.997-.721-1.371-1.733-1.316-2.926h-15.44c.166 2.066-1.317 3.37-2.8 3.495-.887.069-1.677-.167-2.342-.763-.818-.721-1.123-1.65-1.054-2.76H5.146c-.804 0-1.012-.208-1.012-1.026v-11.65c0-.263-.07-.444-.29-.61C2.331 17.9 1.25 16.417.668 14.614c-.222-.694-.346-1.415-.513-2.136.014-.652.014-1.262.014-1.872Zm9.439-6.99c-4.366 0-7.956 3.564-7.97 7.905-.014 4.383 3.562 7.96 7.956 7.989 4.338.013 7.942-3.579 7.942-7.92.028-4.382-3.548-7.974-7.928-7.974ZM36.387 25.82h-6.625c-.804 0-1.012-.222-1.012-1.026v-5.867h-1.788V30.84h2.661c.083 0 .167-.083.236-.152 1.33-1.373 3.285-1.387 4.602-.014.069.07.152.166.221.166.569.014 1.137.014 1.719.014V27.97c-.54-.041-1.192.056-1.22-.72-.027-.847.666-.777 1.234-.805-.028-.25-.028-.416-.028-.624Zm-.54-1.498c-1.04-1.803-2.038-3.564-3.05-5.298-.027-.055-.138-.11-.208-.11-.776-.015-1.566 0-2.356 0v5.422c1.871-.014 3.7-.014 5.613-.014Zm-2.08 8.418c0-.901-.693-1.622-1.58-1.622-.887-.014-1.635.735-1.635 1.622 0 .874.735 1.609 1.622 1.609.859.014 1.58-.707 1.593-1.609Zm-21.635 0c0-.901-.707-1.622-1.594-1.622-.901-.014-1.622.72-1.622 1.622 0 .888.72 1.609 1.608 1.609.887 0 1.594-.707 1.608-1.609Z"/><path fill="#251D34" fill-opacity=".72" d="M21.654 12.187c0 .388-.36.749-.763.735-.402-.014-.748-.36-.734-.763a.756.756 0 0 1 .734-.721c.402 0 .763.36.763.749ZM23.967 27.387a.715.715 0 0 1-.762.707.756.756 0 0 1-.72-.735c0-.402.346-.735.748-.735.43.014.748.347.734.763ZM10.329 10.828h4.81c.43 0 .72.208.79.568.097.486-.208.902-.707.902a382.45 382.45 0 0 1-5.628 0 .7.7 0 0 1-.72-.721 68.43 68.43 0 0 1 0-2.386c0-.416.318-.707.734-.707s.721.291.735.707c0 .527-.014 1.068-.014 1.637ZM3.705 12.284c-.11 0-.221.014-.332 0a.773.773 0 0 1-.693-.735c0-.402.29-.707.707-.735.166-.014.346-.014.512 0 .472.014.79.305.79.721 0 .43-.332.735-.817.75a.336.336 0 0 1-.167 0ZM10.329 17.443v.291c-.028.417-.333.722-.721.722-.402.014-.72-.305-.749-.735v-.472c.014-.471.305-.79.721-.804.43-.014.735.333.749.818v.18ZM10.345 5.669c0 .11.014.222 0 .333a.71.71 0 0 1-.693.665c-.36.014-.707-.25-.748-.61a3.9 3.9 0 0 1 0-.804c.041-.36.402-.624.762-.597a.72.72 0 0 1 .68.68v.333Z"/></svg>