<svg xmlns="http://www.w3.org/2000/svg" width="18" height="18" fill="none" viewBox="0 0 18 18"><g id="youtube-round-color-icon 1" clip-path="url(#clip0_6137_14127)"><path id="Vector" fill="red" fill-rule="evenodd" d="M9 0a9 9 0 1 1 0 18A9 9 0 0 1 9 0Zm4.547 7.144s-.091-.64-.37-.92c-.353-.37-.75-.373-.93-.394C10.949 5.735 9 5.735 9 5.735h-.004s-1.948 0-3.247.095c-.182.022-.577.024-.93.393-.28.281-.368.921-.368.921s-.092.75-.092 1.503v.704c0 .75.092 1.503.092 1.503s.09.64.368.921c.353.37.817.358 1.024.397.744.071 3.157.093 3.157.093s1.951-.004 3.25-.097c.18-.021.576-.023.93-.393.278-.28.369-.921.369-.921s.092-.751.092-1.504v-.703c-.002-.751-.094-1.503-.094-1.503Zm-5.509 3.06V7.596l2.508 1.308-2.508 1.3Z" clip-rule="evenodd"/></g><defs><clipPath id="clip0_6137_14127"><path fill="#fff" d="M0 0h18v18H0z"/></clipPath></defs></svg>